HIERARCHY
ROOT Hips
{
    OFFSET 0.0 0.0 0.0
    CHANNELS 6 Xposition Yposition Zposition Zrotation Xrotation Yrotation
    JOINT LeftHipJoint
    {
        OFFSET 0.1 0.0 0.0
        CHANNELS 3 Zrotation Xrotation Yrotation
        JOINT LeftUpLeg
        {
            OFFSET 117.53276628924935 0.0 0.0
            CHANNELS 3 Zrotation Xrotation Yrotation
            JOINT LeftLeg
            {
                OFFSET 0.0 0.0 -418.1092755310933
                CHANNELS 3 Zrotation Xrotation Yrotation
                JOINT LeftFoot
                {
                    OFFSET 0.0 0.0 -397.6069687483762
                    CHANNELS 3 Zrotation Xrotation Yrotation
                    End Site
                    {
                        OFFSET 0.0 -0.1 0.0
                    }
                }
            }
        }
    }
    JOINT LowerBack
    {
        OFFSET 0.0 0.0 0.1
        CHANNELS 3 Zrotation Xrotation Yrotation
        JOINT Spine
        {
            OFFSET 0.0 0.0 217.83346379726095
            CHANNELS 3 Zrotation Xrotation Yrotation
            JOINT Spine1
            {
                OFFSET 0.0 0.0 247.07234258276415
                CHANNELS 3 Zrotation Xrotation Yrotation
                JOINT LeftShoulder
                {
                    OFFSET 0.1 0.0 0.0
                    CHANNELS 3 Zrotation Xrotation Yrotation
                    JOINT LeftArm
                    {
                        OFFSET 138.46795213727003 0.0 0.0
                        CHANNELS 3 Zrotation Xrotation Yrotation
                        JOINT LeftForeArm
                        {
                            OFFSET 259.2794904344948 0.0 0.0
                            CHANNELS 3 Zrotation Xrotation Yrotation
                            JOINT LeftHand
                            {
                                OFFSET 244.42824959512114 0.0 0.0
                                CHANNELS 3 Zrotation Xrotation Yrotation
                                End Site
                                {
                                    OFFSET 0.1 0.0 0.0
                                }
                            }
                        }
                    }
                }
                JOINT Neck
                {
                    OFFSET 0.0 0.0 0.1
                    CHANNELS 3 Zrotation Xrotation Yrotation
                    JOINT Neck1
                    {
                        OFFSET 0.0 0.0 104.9430687436857
                        CHANNELS 3 Zrotation Xrotation Yrotation
                        End Site
                        {
                            OFFSET 0.0 0.0 114.28344094217056
                        }
                    }
                }
                JOINT RightShoulder
                {
                    OFFSET -0.1 0.0 0.0
                    CHANNELS 3 Zrotation Xrotation Yrotation
                    JOINT RightArm
                    {
                        OFFSET -138.46795213727003 0.0 0.0
                        CHANNELS 3 Zrotation Xrotation Yrotation
                        JOINT RightForeArm
                        {
                            OFFSET -259.2794904344948 0.0 0.0
                            CHANNELS 3 Zrotation Xrotation Yrotation
                            JOINT RightHand
                            {
                                OFFSET -244.42824959512114 0.0 0.0
                                CHANNELS 3 Zrotation Xrotation Yrotation
                                End Site
                                {
                                    OFFSET -0.1 0.0 0.0
                                }
                            }
                        }
                    }
                }
            }
        }
    }
    JOINT RightHipJoint
    {
        OFFSET -0.1 0.0 0.0
        CHANNELS 3 Zrotation Xrotation Yrotation
        JOINT RightUpLeg
        {
            OFFSET -117.53276628924935 0.0 0.0
            CHANNELS 3 Zrotation Xrotation Yrotation
            JOINT RightLeg
            {
                OFFSET 0.0 0.0 -418.1092755310933
                CHANNELS 3 Zrotation Xrotation Yrotation
                JOINT RightFoot
                {
                    OFFSET 0.0 0.0 -397.6069687483762
                    CHANNELS 3 Zrotation Xrotation Yrotation
                    End Site
                    {
                        OFFSET 0.0 -0.1 0.0
                    }
                }
            }
        }
    }
}
MOTION
Frames: 6
Frame Time: 0.03333333333333333
0.0 0.0 817.8761897689607 22.376007012801555 -0.1943414864273459 4.41514112503026 0.0 0.0 -7.454425034680117e-17 -0.5112980821201734 -12.834669906244976 -0.2849832248817049 0.8914702021514417 23.8218490932826 -0.9448194683599935 -3.1805546814635168e-15 -1.5902773407317584e-15 -3.975693351829396e-16 0.0 0.0 -7.454425034680117e-17 0.016665007882266294 0.4247319795501518 -2.7128023018742438 1.8348159881167954 -6.26197686605046e-17 -8.066635032874368e-16 0.0 0.0 -5.2802177328984156e-17 -32.17302589649907 8.473460464976135 78.6676280090741 -28.137293512108734 -1.3529997810176406e-15 5.399020405871413e-15 0.0 0.0 -1.1927080055488188e-15 0.0 0.0 -5.2802177328984156e-17 -0.11131149790932415 -3.372648898419476 -0.6421258825846986 0.0 0.0 -5.2802177328984156e-17 26.40244128587818 9.939407628802234 -73.32612177558438 31.88030650730727 -1.0486066248319797e-14 9.610461813640292e-15 0.0 0.0 -1.5902773407317584e-15 0.0 0.0 -7.454425034680117e-17 -0.3844910022581313 -9.685423046420821 -3.230546506877792 -0.4106527860288421 23.377883940665264 -0.3463147437095978 0.0 0.0 -3.975693351829396e-16
0.0 0.0 817.8761897689607 22.460449482679802 -0.2482853063431618 4.550105385041179 0.0 0.0 -6.957463365701443e-16 -0.5405140984003245 -12.877667371400005 -0.4356809920324155 0.886321525239343 23.989528268811764 -1.0063023056298324 3.1805546814635164e-15 -1.1034765745125397e-32 -3.9756933518293955e-16 0.0 0.0 -6.957463365701443e-16 0.018880950074880942 0.4568243234626761 -2.82942890092217 1.7106428707736254 -1.3909603736037055e-18 -9.316993049060585e-17 0.0 0.0 3.416611474228387e-17 -31.676260996953253 8.621238655779369 78.7807652309419 -28.279462233672085 6.064133823384226e-16 -1.5426886213252828e-14 3.1805546814635168e-15 6.620859447075238e-32 2.3854160110976376e-15 0.0 0.0 3.416611474228387e-17 -0.03268721044920096 -3.3656998465145023 -0.7368550811243746 0.0 0.0 3.416611474228387e-17 25.916235561083695 10.17381383621276 -73.47217522167874 32.30784781625608 -6.9948483545930945e-15 -1.2851991694456294e-15 6.3611093629270335e-15 4.413906298050159e-31 7.951386703658792e-15 0.0 0.0 -6.957463365701443e-16 -0.40209432710116255 -9.618061792179825 -3.40071746214141 -0.4318869713552511 23.3777169429467 -0.3171606598623666 0.0 0.0 3.975693351829396e-16
0.0 0.0 817.8761897689607 22.45824678217768 -0.1758698761598196 4.690838111283301 0.0 0.0 -3.7272125173400585e-16 -0.5568371345528647 -13.055411823695312 -0.5951457319656934 0.8444815695144785 24.282310166339563 -1.0743151525894261 0.0 0.0 -7.951386703658792e-16 0.0 0.0 -3.7272125173400585e-16 0.0161965719494687 0.3858266510633532 -2.8860080323562927 1.7150644666368784 -1.9783270013357977e-16 6.508830268635514e-17 0.0 0.0 9.318031293350147e-18 -30.859983028682564 9.261602579904986 79.02874664820393 -28.7540995369782 -1.3430397067383008e-15 -1.1651059486932466e-15 0.0 0.0 -1.1927080055488188e-15 0.0 0.0 9.318031293350147e-18 -0.0971471709789648 -3.4024182474706754 -0.983848698386925 0.0 0.0 9.318031293350147e-18 25.136543321470153 10.47381576812941 -73.54388633056605 32.59647169410681 -4.320317756590056e-15 7.890645039306267e-15 0.0 0.0 -1.5902773407317584e-15 0.0 0.0 -3.7272125173400585e-16 -0.4130381371836275 -9.725150697476579 -3.5722249004955167 -0.48932523736719347 23.372485025560444 -0.2514274760625242 0.0 0.0 0.0
0.0 0.0 817.8761897689607 22.448205222645495 -0.10511669571480776 4.7278051456476655 0.0 0.0 -2.2363275104040355e-16 -0.5620133349976794 -13.25854327931849 -0.6188727494316206 0.8431900089620951 24.6943082455323 -1.150882765256532 1.1034765745125397e-32 -1.5902773407317584e-15 7.951386703658792e-16 0.0 0.0 -2.2363275104040355e-16 0.01554081379544385 0.37268406659075226 -2.8381300024766603 1.6865661915580676 -1.5542358046930547e-18 -1.0559291677849119e-16 3.1805546814635168e-15 -4.9696166897867443e-17 1.3045243810690206e-16 -29.872773553279348 9.474648972936532 79.12928879533857 -28.870462388588205 5.0700988772151036e-15 5.820930873322108e-15 2.758691436281349e-33 -1.5902773407317584e-15 1.987846675914698e-16 3.1805546814635168e-15 -4.9696166897867443e-17 1.3045243810690206e-16 -0.07755659609299871 -3.4917614846495426 -1.203564195131977 3.1805546814635168e-15 -4.9696166897867443e-17 1.3045243810690206e-16 24.558761286718138 10.681491383765978 -73.71127612361015 32.90239280938108 -3.398508577902876e-15 1.0952497637938749e-14 0.0 0.0 0.0 0.0 0.0 -2.2363275104040355e-16 -0.41590130515660667 -9.85460743330165 -3.668845888985983 -0.5435673116400669 23.600365472310692 -0.16648831332575473 0.0 0.0 0.0
0.0 0.0 817.8761897689607 22.44549308187995 -0.1896674529632676 4.773915379894629 0.0 0.0 1.2424041724466862e-16 -0.5403850918069087 -13.332372628345455 -0.6665737664542684 0.7872863602919341 25.127246806333844 -1.236115470708697 0.0 0.0 0.0 0.0 0.0 1.2424041724466862e-16 0.01701264012056968 0.4267752736112187 -2.8077977137068126 1.5985605872051871 1.0501525946093781e-16 4.0235558252296374e-16 -3.771648448040907e-35 -4.969616689786745e-17 -8.696829207126804e-17 -28.82174415947258 9.956936005484321 79.29844565995488 -29.298739232061894 6.336613216836189e-16 3.863991049206664e-15 0.0 0.0 -3.975693351829396e-16 -3.771648448040907e-35 -4.969616689786745e-17 -8.696829207126804e-17 -0.12211337914515126 -3.4156742954046866 -1.3763496894675935 -3.771648448040907e-35 -4.969616689786745e-17 -8.696829207126804e-17 23.502450178933902 11.189678352035271 -73.95846027437378 33.70256788015602 6.0879659308151135e-15 -1.8440127853006984e-15 0.0 0.0 1.5902773407317584e-15 0.0 0.0 1.2424041724466862e-16 -0.3947707908259496 -9.786779900106486 -3.711673033579358 -0.6167372638266868 23.86336997002577 -0.2603455539010027 0.0 0.0 7.951386703658791e-16
0.0 0.0 817.8761897689607 22.33894754623283 -0.20792326699934374 4.826898501062172 -6.034637516865451e-34 1.987846675914698e-16 3.4787316828507215e-16 -0.5537868545372658 -13.42121136933736 -0.6098900403569794 0.8448132197967114 25.41871021381317 -1.4821513384883418 0.0 0.0 -3.975693351829396e-16 -6.034637516865451e-34 1.987846675914698e-16 3.4787316828507215e-16 0.017312071815042736 0.42674329223177665 -2.7895605711959846 1.4753426700666648 3.99349423496849e-17 -7.584435441783728e-16 0.0 0.0 6.212020862233431e-18 -27.69694561846676 10.689347707774225 79.5546564679281 -29.70491548067542 -3.2781080706635297e-15 -4.670186228987047e-17 0.0 0.0 -7.951386703658792e-16 0.0 0.0 6.212020862233431e-18 -0.0059309471943303155 -3.3661252193837425 -1.5478246067220098 0.0 0.0 6.212020862233431e-18 22.610782587232396 12.09482574033595 -74.24547529701303 34.69998729024074 1.1952926528226925e-14 6.2621284626586665e-15 0.0 0.0 -3.1805546814635168e-15 -6.034637516865451e-34 1.987846675914698e-16 3.4787316828507215e-16 -0.403475176553161 -9.829094255222348 -3.7211953002971696 -0.6117517926830721 24.180738408838632 -0.354662007725158 3.1805546814635164e-15 1.1034765745125397e-32 3.9756933518293955e-16
